<?xml version="1.0" encoding="UTF-8"?>
<svg width="192px" height="282px" viewBox="0 0 192 282" version="1.1" xmlns="http://www.w3.org/2000/svg" xmlns:xlink="http://www.w3.org/1999/xlink">
    <!-- Generator: Sketch 51.2 (57519) - http://www.bohemiancoding.com/sketch -->
    <title>Group Copy 2</title>
    <desc>Created with Sketch.</desc>
    <defs>
        <rect id="path-1" x="2" y="0" width="188" height="233" rx="32"></rect>
    </defs>
    <g id="working" stroke="none" stroke-width="1" fill="none" fill-rule="evenodd">
        <g id="Group-Copy-2">
            <g id="vegemite">
                <g id="Rectangle-4" transform="translate(0.000000, 49.000000)">
                    <mask id="mask-2" fill="white">
                        <use xlink:href="#path-1"></use>
                    </mask>
                    <use id="Mask" fill="#2A1C0E" xlink:href="#path-1"></use>
                    <rect fill="#FFE400" x="0" y="42" width="192" height="146"></rect>
                </g>
                <path d="M15,0 L177,0 C185.284271,-1.52179594e-15 192,6.71572875 192,15 L192,46 L0,46 L0,15 C-1.01453063e-15,6.71572875 6.71572875,1.52179594e-15 15,0 Z" id="Rectangle-3" fill="#FFE400"></path>
                <path d="M9.04278514,156.405592 L88.4236195,111.636039 C92.4806663,108.12132 99.0584389,108.12132 103.115486,111.636039 L182.49632,156.405592 C186.553367,159.92031 186.553367,165.618795 182.49632,169.133514 L103.115486,213.903066 C99.0584389,217.417785 92.4806663,217.417785 88.4236195,213.903066 L9.04278514,169.133514 C4.98573829,165.618795 4.98573829,159.92031 9.04278514,156.405592 Z" id="Rectangle-5" fill="#FF0000"></path>
            </g>
            <polygon id="Rectangle-7" fill="#FFFFFF" points="19 146 174 146 174 178.111111 19 178.111111"></polygon>
            <path d="M53.86,173 L52.09,168.14 L43.45,168.14 L41.68,173 L37.3,173 L45.46,151.73 L50.26,151.73 L58.36,173 L53.86,173 Z M47.77,156.32 L44.83,164.36 L50.71,164.36 L47.77,156.32 Z M64.09,151.73 L71.74,151.73 C75.88,151.73 78.22,154.16 78.22,157.46 C78.22,159.65 76.9,161.42 75.13,162.02 C77.2,162.53 78.88,164.42 78.88,167.06 C78.88,170.51 76.3,173 72.31,173 L64.09,173 L64.09,151.73 Z M68.17,160.52 L71.11,160.52 C73,160.52 74.14,159.47 74.14,157.85 C74.14,156.23 73.09,155.21 71.08,155.21 L68.17,155.21 L68.17,160.52 Z M68.17,169.55 L71.53,169.55 C73.54,169.55 74.74,168.5 74.74,166.79 C74.74,165.11 73.66,163.94 71.59,163.94 L68.17,163.94 L68.17,169.55 Z M88.42,162.35 C88.42,167.15 91.78,169.43 95.05,169.43 C98.35,169.43 101.71,167.15 101.71,162.35 C101.71,157.55 98.35,155.27 95.05,155.27 C91.78,155.27 88.42,157.55 88.42,162.35 Z M84.13,162.38 C84.13,155.51 89.29,151.28 95.05,151.28 C100.84,151.28 106,155.51 106,162.38 C106,169.22 100.84,173.45 95.05,173.45 C89.29,173.45 84.13,169.22 84.13,162.38 Z M120.55,173.48 C116.02,173.48 112.39,170.69 112.39,165.47 L112.39,151.73 L116.53,151.73 L116.53,165.17 C116.53,167.96 118.09,169.43 120.55,169.43 C123.07,169.43 124.6,167.96 124.6,165.17 L124.6,151.73 L128.74,151.73 L128.74,165.47 C128.74,170.69 125.11,173.48 120.55,173.48 Z M152.14,155.66 L145.42,155.66 L145.42,173 L141.25,173 L141.25,155.66 L134.53,155.66 L134.53,151.73 L152.14,151.73 L152.14,155.66 Z" id="ABOUT" fill="#444444"></path>
        </g>
    </g>
</svg>