<?xml version="1.0" encoding="UTF-8"?>
<svg width="185px" height="177px" viewBox="0 0 185 177" version="1.1" xmlns="http://www.w3.org/2000/svg" xmlns:xlink="http://www.w3.org/1999/xlink">
    <!-- Generator: Sketch 51.2 (57519) - http://www.bohemiancoding.com/sketch -->
    <title>Group 2 Copy</title>
    <desc>Created with Sketch.</desc>
    <defs>
        <path d="M7.73263065,23.0355783 L91.102107,9.83115047 C95.6309946,9.11384514 99.8838743,12.2037431 100.60118,16.7326306 L120.624287,143.153558 C121.341593,147.682446 118.251695,151.935325 113.722807,152.652631 L30.3533308,165.857058 C25.8244432,166.574364 21.5715636,163.484466 20.8542583,158.955578 L0.831150465,32.5346509 C0.11384514,28.0057633 3.20374307,23.7528836 7.73263065,23.0355783 Z" id="path-1"></path>
        <filter x="-5.8%" y="-3.2%" width="111.7%" height="109.0%" filterUnits="objectBoundingBox" id="filter-2">
            <feOffset dx="0" dy="2" in="SourceAlpha" result="shadowOffsetOuter1"></feOffset>
            <feGaussianBlur stdDeviation="2" in="shadowOffsetOuter1" result="shadowBlurOuter1"></feGaussianBlur>
            <feColorMatrix values="0 0 0 0 0   0 0 0 0 0   0 0 0 0 0  0 0 0 0.11 0" type="matrix" in="shadowBlurOuter1"></feColorMatrix>
        </filter>
        <path d="M33.3011309,0.216245912 L113.558072,15.8166149 C117.917877,16.6640751 120.765195,20.8853977 119.917734,25.2452027 L96.2614372,146.946301 C95.413977,151.306106 91.1926544,154.153424 86.8328494,153.305964 L6.57590871,137.705595 C2.21610368,136.858135 -0.631214336,132.636812 0.216245912,128.277007 L23.8725431,6.57590871 C24.7200033,2.21610368 28.9413259,-0.631214336 33.3011309,0.216245912 Z" id="path-3"></path>
        <filter x="-9.6%" y="-6.2%" width="119.2%" height="115.0%" filterUnits="objectBoundingBox" id="filter-4">
            <feOffset dx="0" dy="2" in="SourceAlpha" result="shadowOffsetOuter1"></feOffset>
            <feGaussianBlur stdDeviation="3.5" in="shadowOffsetOuter1" result="shadowBlurOuter1"></feGaussianBlur>
            <feColorMatrix values="0 0 0 0 0   0 0 0 0 0   0 0 0 0 0  0 0 0 0.114187047 0" type="matrix" in="shadowBlurOuter1"></feColorMatrix>
        </filter>
    </defs>
    <g id="Page-1" stroke="none" stroke-width="1" fill="none" fill-rule="evenodd">
        <g id="Group-2-Copy" transform="translate(3.000000, 5.000000)">
            <g id="Rectangle">
                <use fill="black" fill-opacity="1" filter="url(#filter-2)" xlink:href="#path-1"></use>
                <use fill="#9FE1DF" fill-rule="evenodd" xlink:href="#path-1"></use>
            </g>
            <g id="Group" transform="translate(55.000000, 0.000000)">
                <g id="Rectangle-Copy-2">
                    <use fill="black" fill-opacity="1" filter="url(#filter-4)" xlink:href="#path-3"></use>
                    <use fill="#D8F9F8" fill-rule="evenodd" xlink:href="#path-3"></use>
                </g>
                <path d="M42.9291213,32.4462692 L37.3384477,31.3595523 L39.7584052,18.9099506 L45.2024098,19.9681579 C47.618133,20.4377269 48.8291859,21.8997701 48.4552077,23.823721 C48.1986218,25.1437412 47.0006596,26.101705 45.6868827,26.0433111 L45.6566961,26.1986076 C47.281086,26.6397069 48.2388273,28.1151862 47.9268993,29.7199166 C47.5026102,31.902695 45.5864167,32.9627951 42.9291213,32.4462692 Z M41.9765407,21.4093859 L41.3610699,24.5757087 L43.3195311,24.956395 C44.7258271,25.2297513 45.6060431,24.8009591 45.8005789,23.8001595 C45.9934376,22.8079875 45.3930634,22.0734906 44.1506915,21.831998 L41.9765407,21.4093859 Z M40.3313721,29.8730445 L42.6521918,30.3241661 C44.1533912,30.6159697 45.0868074,30.1437972 45.3132067,28.9790736 C45.5345749,27.8402326 44.8150917,27.0736297 43.279382,26.775118 L41.0189553,26.3357356 L40.3313721,29.8730445 Z M53.1119536,32.6169912 C54.2766773,32.8433906 55.3009155,32.2724757 55.4887431,31.3061865 L55.6245827,30.6073523 L53.6771533,30.3541603 C52.5836122,30.2221795 51.9818632,30.5081217 51.8493776,31.1897008 C51.711861,31.8971626 52.2405678,32.447611 53.1119536,32.6169912 Z M51.9164356,34.3454367 C50.0873881,33.9899059 49.0198925,32.6184424 49.358653,30.8756707 C49.6940594,29.1501541 51.2086153,28.4059405 53.5994054,28.727406 L55.9298025,29.0371322 L56.0807354,28.2606498 C56.2350224,27.4669122 55.7528076,26.9075938 54.7174977,26.7063499 C53.8116015,26.5302615 53.1472976,26.7234623 52.8295515,27.2526339 L50.5173593,26.8031893 C51.0233979,25.0750261 52.851416,24.2843005 55.2412564,24.7488384 C57.7605106,25.2385318 58.9526313,26.7058485 58.5568517,28.741958 L57.2940464,35.2385278 L54.8610681,34.7656047 L55.1025607,33.5232328 L54.9472643,33.4930462 C54.2861118,34.2688412 53.1501799,34.5852523 51.9164356,34.3454367 Z M69.3794567,31.1948484 L67.0327542,30.7386956 C67.036291,29.7992588 66.5049375,29.0781782 65.4351172,28.8702262 C64.0805868,28.6069321 63.1251467,29.4687805 62.7612307,31.3409659 C62.3922837,33.2390341 62.9605717,34.4149723 64.3064746,34.6765893 C65.3331569,34.8761562 66.1033762,34.5065649 66.4759796,33.6030531 L68.822682,34.0592058 C68.2013931,36.14997 66.3817801,37.2198898 63.9056639,36.7385816 C60.9377754,36.1616825 59.6042195,34.040124 60.2247214,30.8479185 C60.8385152,27.6902232 62.8594119,26.2296578 65.8359279,26.8082339 C68.3551821,27.2979273 69.5933298,28.9890764 69.3794567,31.1948484 Z M74.0196815,32.4728664 L77.9260604,29.3732032 L80.7817902,29.9283008 L76.3649693,33.3047939 L79.1822236,39.4931584 L76.2057076,38.9145823 L74.1789364,34.5094209 L73.3512132,35.0827201 L72.7374194,38.2404154 L70.2267928,37.752399 L72.7825899,24.6039631 L75.2932164,25.0919794 L73.864385,32.4426799 L74.0196815,32.4728664 Z M88.3303008,29.0497487 L90.8409274,29.5377651 L90.3830976,31.8930951 L92.358814,32.2771355 L91.9747736,34.2528519 L89.9990572,33.8688116 L89.1672492,38.1480926 C89.0062541,38.9763405 89.3120784,39.4297436 90.166209,39.5957697 C90.4940572,39.659497 90.6682859,39.68441 90.9148893,39.7054842 L90.5425881,41.6208075 C90.2202559,41.6208274 89.7443043,41.5820332 89.2611597,41.4881194 C86.9489675,41.0386748 86.1803455,40.1103097 86.5409075,38.2553794 L87.4884306,33.3807952 L86.0044864,33.0923457 L86.3885268,31.1166292 L87.872471,31.4050788 L88.3303008,29.0497487 Z M96.7249883,43.118012 C93.8002378,42.5494981 92.4007729,40.3524533 93.0061815,37.2378959 C93.604882,34.1578489 95.7563846,32.6241816 98.6552524,33.1876644 C101.55412,33.7511472 102.976114,35.9704783 102.375736,39.0591529 C101.770328,42.1737102 99.6497389,43.6865259 96.7249883,43.118012 Z M97.124122,41.0646474 C98.4613973,41.3245873 99.4372042,40.404023 99.7960891,38.5577203 C100.15162,36.7286727 99.5847665,35.499292 98.2561187,35.2410291 C96.9188434,34.9810891 95.9413595,35.910281 95.5858287,37.7393286 C95.2252668,39.5942588 95.7782191,40.8030303 97.124122,41.0646474 Z M35.7530933,39.5154938 L40.6535602,40.4680481 C44.3547932,41.1874949 46.0584053,43.8465704 45.3003868,47.7462378 C44.5138587,51.792574 41.9590415,53.6507554 38.2319258,52.9262775 L33.3314588,51.9737232 L35.7530933,39.5154938 Z M37.9259489,42.2478739 L36.3696631,50.2542706 L38.2504761,50.6198636 C40.5540407,51.0676312 42.1232113,49.9042625 42.6347062,47.2728498 C43.1243996,44.7535956 42.0671886,43.0528493 39.806762,42.6134669 L37.9259489,42.2478739 Z M56.7415544,46.6484029 L54.8917879,56.1646266 L52.4588096,55.6917036 L52.7556443,54.1646214 L52.6003478,54.1344348 C51.9370534,55.1515598 50.925989,55.608639 49.4851827,55.3285746 C47.431818,54.9294409 46.4098447,53.3698476 46.8391649,51.1611864 L48.0449511,44.9579545 L50.5555776,45.4459709 L49.4755689,51.0021341 C49.22066,52.3135267 49.6851547,53.1021933 50.8412508,53.3269157 C52.0922503,53.5700853 52.9178116,52.9157838 53.1643354,51.6475292 L54.2309278,46.1603866 L56.7415544,46.6484029 Z M60.4162803,45.0168634 L62.9269069,45.5048797 L62.4690771,47.8602098 L64.4447935,48.2442502 L64.0607532,50.2199666 L62.0850367,49.8359262 L61.2532288,54.1152072 C61.0922337,54.9434552 61.3980579,55.3968582 62.2521886,55.5628844 C62.5800367,55.6266116 62.7542654,55.6515247 63.0008688,55.6725988 L62.6285677,57.5879222 C62.3062355,57.5879421 61.8302838,57.5491479 61.3471392,57.4552341 C59.034947,57.0057894 58.2663251,56.0774243 58.626887,54.2224941 L59.5744102,49.3479099 L58.0904659,49.0594603 L58.4745063,47.0837439 L59.9584505,47.3721934 L60.4162803,45.0168634 Z M74.2502504,53.5346854 L71.9035479,53.0785326 C71.9070846,52.1390958 71.3757311,51.4180152 70.3059109,51.2100632 C68.9513804,50.9467691 67.9959404,51.8086175 67.6320244,53.6808029 C67.2630773,55.5788711 67.8313653,56.7548093 69.1772682,57.0164263 C70.2039506,57.2159931 70.9741699,56.8464019 71.3467732,55.94289 L73.6934757,56.3990428 C73.0721868,58.4898069 71.2525738,59.5597268 68.7764575,59.0784186 C65.8085691,58.5015195 64.4750132,56.379961 65.0955151,53.1877554 C65.7093089,50.0300602 67.7302056,48.5694948 70.7067216,49.1480709 C73.2259757,49.6377643 74.4641235,51.3289133 74.2502504,53.5346854 Z M75.0975865,60.092236 L77.6533835,46.9438 L80.1208722,47.4234312 L79.1112988,52.617236 L79.2665953,52.6474226 C79.9179081,51.6458758 81.0806724,51.1914234 82.4783408,51.4631026 C84.5230779,51.8605592 85.4896893,53.3825306 85.0452758,55.66884 L83.8545829,61.7944237 L81.3439563,61.3064073 L82.418934,55.7761268 C82.6755199,54.4561067 82.1954471,53.6554584 81.0566062,53.4340901 C79.7969791,53.1892434 78.90959,53.8852482 78.6697744,55.1189925 L77.6082131,60.5802524 L75.0975865,60.092236 Z M32.0852964,73.1245443 L34.0122063,63.2114519 L33.8569099,63.1812653 L30.3935497,64.6927261 L30.8647958,62.2683753 L34.5138814,60.6766196 L37.1107838,61.1814063 L34.6908263,73.6310081 L32.0852964,73.1245443 Z M42.8681176,75.5517944 C39.7880706,74.9530939 38.3974358,72.1578766 39.2007342,68.0252645 C40.0023556,63.90128 42.3493836,61.868405 45.4121754,62.4637515 C48.4663397,63.0574209 49.8895653,65.8231589 49.0862669,69.955771 C48.2863226,74.0711279 45.9481646,76.1504949 42.8681176,75.5517944 Z M43.2806675,73.429409 C44.7128462,73.7077964 45.8810668,72.3500945 46.4479036,69.4339716 C47.0113865,66.5351038 46.4214996,64.8714747 44.9979485,64.5947644 C43.5830249,64.3197311 42.4025803,65.6481962 41.8407745,68.5384364 C41.2756147,71.4459317 41.8571164,73.1526987 43.2806675,73.429409 Z M53.2487566,77.2383043 L55.1756666,67.3252118 L55.0203701,67.2950252 L51.55701,68.806486 L52.0282561,66.3821353 L55.6773417,64.7903795 L58.274244,65.2951662 L55.8542866,77.744768 L53.2487566,77.2383043 Z" id="Back-to-Dutch-101" fill="#538988"></path>
            </g>
        </g>
    </g>
</svg>