<?xml version="1.0" encoding="UTF-8"?>
<svg width="821px" height="294px" viewBox="0 0 821 294" version="1.1" xmlns="http://www.w3.org/2000/svg" xmlns:xlink="http://www.w3.org/1999/xlink">
    <!-- Generator: Sketch 51.2 (57519) - http://www.bohemiancoding.com/sketch -->
    <title>Group 4</title>
    <desc>Created with Sketch.</desc>
    <defs></defs>
    <g id="working" stroke="none" stroke-width="1" fill="none" fill-rule="evenodd">
        <g id="Group-4">
            <path d="M31.14,258.62 L47.79,211.19 L60.93,211.19 L37.26,275 L24.48,275 L0.9,211.19 L14.49,211.19 L31.14,258.62 Z M71.19,247.82 L90.99,247.82 C90.81,243.41 87.93,239.09 81.09,239.09 C74.88,239.09 71.46,243.77 71.19,247.82 Z M92.16,259.34 L102.15,262.31 C99.9,269.96 92.88,276.35 81.99,276.35 C69.84,276.35 59.13,267.62 59.13,252.68 C59.13,238.55 69.57,229.37 80.91,229.37 C94.59,229.37 102.78,238.1 102.78,252.32 C102.78,254.03 102.6,255.83 102.6,256.01 L70.92,256.01 C71.19,261.86 76.14,266.09 82.08,266.09 C87.66,266.09 90.72,263.3 92.16,259.34 Z M109.08,277.43 L119.88,274.55 C120.69,279.41 124.56,282.92 130.23,282.92 C137.79,282.92 142.02,279.14 142.02,270.59 L142.02,267.35 C140.22,270.23 136.08,273.02 129.69,273.02 C117.9,273.02 109.08,263.93 109.08,251.51 C109.08,239.81 117.54,229.91 129.69,229.91 C136.71,229.91 140.76,232.97 142.29,235.94 L142.29,230.72 L153.81,230.72 L153.81,270.23 C153.81,282.38 147.24,293.45 130.59,293.45 C118.44,293.45 110.34,285.89 109.08,277.43 Z M131.76,262.76 C137.88,262.76 142.2,258.35 142.2,251.51 C142.2,244.67 137.52,240.35 131.76,240.35 C125.82,240.35 121.14,244.67 121.14,251.51 C121.14,258.44 125.55,262.76 131.76,262.76 Z M174.69,247.82 L194.49,247.82 C194.31,243.41 191.43,239.09 184.59,239.09 C178.38,239.09 174.96,243.77 174.69,247.82 Z M195.66,259.34 L205.65,262.31 C203.4,269.96 196.38,276.35 185.49,276.35 C173.34,276.35 162.63,267.62 162.63,252.68 C162.63,238.55 173.07,229.37 184.41,229.37 C198.09,229.37 206.28,238.1 206.28,252.32 C206.28,254.03 206.1,255.83 206.1,256.01 L174.42,256.01 C174.69,261.86 179.64,266.09 185.58,266.09 C191.16,266.09 194.22,263.3 195.66,259.34 Z M227.7,275 L215.73,275 L215.73,230.72 L227.16,230.72 L227.16,236.12 C229.59,231.8 235.26,229.46 240.12,229.46 C246.15,229.46 251.01,232.07 253.26,236.84 C256.77,231.44 261.45,229.46 267.3,229.46 C275.49,229.46 283.32,234.41 283.32,246.29 L283.32,275 L271.71,275 L271.71,248.72 C271.71,243.95 269.37,240.35 263.88,240.35 C258.75,240.35 255.69,244.31 255.69,249.08 L255.69,275 L243.81,275 L243.81,248.72 C243.81,243.95 241.38,240.35 235.98,240.35 C230.76,240.35 227.7,244.22 227.7,249.08 L227.7,275 Z M307.44,275 L295.47,275 L295.47,230.72 L307.44,230.72 L307.44,275 Z M294.03,216.23 C294.03,212.09 297.36,208.76 301.41,208.76 C305.55,208.76 308.79,212.09 308.79,216.23 C308.79,220.19 305.55,223.52 301.41,223.52 C297.36,223.52 294.03,220.19 294.03,216.23 Z M334.98,217.49 L334.98,230.72 L343.89,230.72 L343.89,241.34 L334.98,241.34 L334.98,259.88 C334.98,263.75 336.78,265.01 340.2,265.01 C341.64,265.01 343.26,264.83 343.89,264.65 L343.89,274.55 C342.81,275 340.65,275.63 337.14,275.63 C328.5,275.63 323.1,270.5 323.1,261.95 L323.1,241.34 L315.09,241.34 L315.09,230.72 L317.34,230.72 C322.02,230.72 324.18,227.66 324.18,223.7 L324.18,217.49 L334.98,217.49 Z M362.34,247.82 L382.14,247.82 C381.96,243.41 379.08,239.09 372.24,239.09 C366.03,239.09 362.61,243.77 362.34,247.82 Z M383.31,259.34 L393.3,262.31 C391.05,269.96 384.03,276.35 373.14,276.35 C360.99,276.35 350.28,267.62 350.28,252.68 C350.28,238.55 360.72,229.37 372.06,229.37 C385.74,229.37 393.93,238.1 393.93,252.32 C393.93,254.03 393.75,255.83 393.75,256.01 L362.07,256.01 C362.34,261.86 367.29,266.09 373.23,266.09 C378.81,266.09 381.87,263.3 383.31,259.34 Z M426.51,211.19 L449.46,211.19 C461.88,211.19 468.9,218.48 468.9,228.38 C468.9,234.95 464.94,240.26 459.63,242.06 C465.84,243.59 470.88,249.26 470.88,257.18 C470.88,267.53 463.14,275 451.17,275 L426.51,275 L426.51,211.19 Z M438.75,237.56 L447.57,237.56 C453.24,237.56 456.66,234.41 456.66,229.55 C456.66,224.69 453.51,221.63 447.48,221.63 L438.75,221.63 L438.75,237.56 Z M438.75,264.65 L448.83,264.65 C454.86,264.65 458.46,261.5 458.46,256.37 C458.46,251.33 455.22,247.82 449.01,247.82 L438.75,247.82 L438.75,264.65 Z M500.85,265.46 C506.7,265.46 512.1,261.23 512.1,252.86 C512.1,244.49 506.7,240.26 500.85,240.26 C495,240.26 489.6,244.49 489.6,252.86 C489.6,261.14 495,265.46 500.85,265.46 Z M500.85,229.37 C514.08,229.37 524.07,239.18 524.07,252.86 C524.07,266.45 514.08,276.35 500.85,276.35 C487.62,276.35 477.63,266.45 477.63,252.86 C477.63,239.18 487.62,229.37 500.85,229.37 Z M548.1,217.49 L548.1,230.72 L557.01,230.72 L557.01,241.34 L548.1,241.34 L548.1,259.88 C548.1,263.75 549.9,265.01 553.32,265.01 C554.76,265.01 556.38,264.83 557.01,264.65 L557.01,274.55 C555.93,275 553.77,275.63 550.26,275.63 C541.62,275.63 536.22,270.5 536.22,261.95 L536.22,241.34 L528.21,241.34 L528.21,230.72 L530.46,230.72 C535.14,230.72 537.3,227.66 537.3,223.7 L537.3,217.49 L548.1,217.49 Z M575.46,247.82 L595.26,247.82 C595.08,243.41 592.2,239.09 585.36,239.09 C579.15,239.09 575.73,243.77 575.46,247.82 Z M596.43,259.34 L606.42,262.31 C604.17,269.96 597.15,276.35 586.26,276.35 C574.11,276.35 563.4,267.62 563.4,252.68 C563.4,238.55 573.84,229.37 585.18,229.37 C598.86,229.37 607.05,238.1 607.05,252.32 C607.05,254.03 606.87,255.83 606.87,256.01 L575.19,256.01 C575.46,261.86 580.41,266.09 586.35,266.09 C591.93,266.09 594.99,263.3 596.43,259.34 Z M643.5,230.54 L643.5,242.6 C642.15,242.33 640.98,242.24 639.9,242.24 C633.78,242.24 628.47,245.21 628.47,254.75 L628.47,275 L616.5,275 L616.5,230.72 L628.11,230.72 L628.11,237.29 C630.81,231.44 636.93,230.36 640.71,230.36 C641.7,230.36 642.6,230.45 643.5,230.54 Z M663.93,248.99 L663.93,275 L651.96,275 L651.96,209.84 L663.93,209.84 L663.93,234.41 C666.81,230.99 671.67,229.55 675.9,229.55 C687.15,229.55 692.37,237.38 692.37,247.1 L692.37,275 L680.4,275 L680.4,249.17 C680.4,244.22 677.97,240.35 672.21,240.35 C667.17,240.35 664.2,244.13 663.93,248.99 Z M701.82,262.94 C701.82,255.02 707.67,250.61 715.05,249.53 L725.94,247.91 C728.46,247.55 729.27,246.29 729.27,244.76 C729.27,241.61 726.84,239 721.8,239 C716.58,239 713.7,242.33 713.34,246.2 L702.72,243.95 C703.44,237.02 709.83,229.37 721.71,229.37 C735.75,229.37 740.97,237.29 740.97,246.2 L740.97,267.98 C740.97,270.32 741.24,273.47 741.51,275 L730.53,275 C730.26,273.83 730.08,271.4 730.08,269.69 C727.83,273.2 723.6,276.26 717.03,276.26 C707.58,276.26 701.82,269.87 701.82,262.94 Z M719.55,267.35 C724.59,267.35 729.27,264.92 729.27,257.09 L729.27,255.11 L719.28,256.64 C716.22,257.09 713.79,258.8 713.79,262.22 C713.79,264.83 715.68,267.35 719.55,267.35 Z M765,275 L753.03,275 L753.03,230.72 L764.46,230.72 L764.46,236.12 C766.89,231.8 772.56,229.46 777.42,229.46 C783.45,229.46 788.31,232.07 790.56,236.84 C794.07,231.44 798.75,229.46 804.6,229.46 C812.79,229.46 820.62,234.41 820.62,246.29 L820.62,275 L809.01,275 L809.01,248.72 C809.01,243.95 806.67,240.35 801.18,240.35 C796.05,240.35 792.99,244.31 792.99,249.08 L792.99,275 L781.11,275 L781.11,248.72 C781.11,243.95 778.68,240.35 773.28,240.35 C768.06,240.35 765,244.22 765,249.08 L765,275 Z" id="Vegemite-Boterham" fill="#444444"></path>
            <g id="sandwich" transform="translate(414.000000, 84.500000) rotate(-360.000000) translate(-414.000000, -84.500000) translate(251.000000, 0.000000)">
                <rect id="Rectangle-9" fill="#F2D49B" x="0" y="140.092179" width="324.894627" height="28.813285" rx="6"></rect>
                <path d="M0.104876082,106.934463 L160.936297,1.18166949 C161.93023,0.528120054 163.21759,0.528120054 164.211524,1.18166949 L325.042944,106.934463 L0.104876082,106.934463 Z" id="Rectangle-8" fill="#FFECC6"></path>
                <rect id="Rectangle-9" fill="#F2D49B" x="0" y="103.330401" width="324.894627" height="28.813285" rx="6"></rect>
                <rect id="Rectangle-9" fill="#2A1C0E" x="2.98068465" y="132.143686" width="319.926819" height="7.94849241"></rect>
            </g>
        </g>
    </g>
</svg>