<?xml version="1.0" encoding="UTF-8"?>
<svg width="1115px" height="190px" viewBox="0 0 1115 190" version="1.1" xmlns="http://www.w3.org/2000/svg" xmlns:xlink="http://www.w3.org/1999/xlink">
    <!-- Generator: Sketch 51.2 (57519) - http://www.bohemiancoding.com/sketch -->
    <title>Artboard 2</title>
    <desc>Created with Sketch.</desc>
    <defs></defs>
    <g id="Artboard-2" stroke="none" stroke-width="1" fill="none" fill-rule="evenodd">
        <g id="Group-3" transform="translate(17.000000, 19.000000)">
            <g id="Group-2">
                <path d="M16.6108724,26.0783508 L18.4768585,22.986566 C19.0427435,22.0489412 20.2574809,21.7408105 21.2018662,22.2953396 L191.462382,122.269803 C192.414885,122.829099 192.733642,124.054654 192.174346,125.007157 C192.170273,125.014095 192.166157,125.021007 192.162,125.027895 L190.296014,128.11968 C189.730129,129.057305 188.515392,129.365436 187.571006,128.810907 L17.3104911,28.8364431 C16.357988,28.2771474 16.0392305,27.0515923 16.5985262,26.0990893 C16.6025999,26.0921517 16.6067154,26.0852388 16.6108724,26.0783508 Z" id="Rectangle-10-Copy-3" fill="#2A1C0E"></path>
                <path d="M18.3308176,20.7846097 L29.3308176,1.73205081 C29.8831024,0.775465561 31.1062832,0.44771525 32.0628684,1 L205.267949,101 C206.224534,101.552285 206.552285,102.775466 206,103.732051 L195,122.78461 C194.447715,123.741195 193.224534,124.068945 192.267949,123.51666 L19.0628684,23.5166605 C18.1062832,22.9643757 17.7785329,21.7411949 18.3308176,20.7846097 Z" id="Rectangle-10-Copy" fill="#F3C38B"></path>
                <path d="M1.33081763,47.7846097 L12.3308176,28.7320508 C12.8831024,27.7754656 14.1062832,27.4477153 15.0628684,28 L188.267949,128 C189.224534,128.552285 189.552285,129.775466 189,130.732051 L178,149.78461 C177.447715,150.741195 176.224534,151.068945 175.267949,150.51666 L2.06286844,50.5166605 C1.10628319,49.9643757 0.778532878,48.7411949 1.33081763,47.7846097 Z" id="Rectangle-10-Copy-2" fill="#F3C38B"></path>
                <path d="M30.3308176,1 L148.451596,1 C151.447764,1 154.192777,2.67419084 155.564261,5.33803384 L203.773884,98.9759565 C204.02669,99.4669835 203.833574,100.069979 203.342547,100.322785 C203.0402,100.478449 202.679468,100.469793 202.384936,100.299805 L30.3308176,1 Z" id="Path-2" fill="#FFECC6"></path>
            </g>
            <path d="M282.24,83.86 L298.89,36.43 L312.03,36.43 L288.36,100.24 L275.58,100.24 L252,36.43 L265.59,36.43 L282.24,83.86 Z M322.29,73.06 L342.09,73.06 C341.91,68.65 339.03,64.33 332.19,64.33 C325.98,64.33 322.56,69.01 322.29,73.06 Z M343.26,84.58 L353.25,87.55 C351,95.2 343.98,101.59 333.09,101.59 C320.94,101.59 310.23,92.86 310.23,77.92 C310.23,63.79 320.67,54.61 332.01,54.61 C345.69,54.61 353.88,63.34 353.88,77.56 C353.88,79.27 353.7,81.07 353.7,81.25 L322.02,81.25 C322.29,87.1 327.24,91.33 333.18,91.33 C338.76,91.33 341.82,88.54 343.26,84.58 Z M360.18,102.67 L370.98,99.79 C371.79,104.65 375.66,108.16 381.33,108.16 C388.89,108.16 393.12,104.38 393.12,95.83 L393.12,92.59 C391.32,95.47 387.18,98.26 380.79,98.26 C369,98.26 360.18,89.17 360.18,76.75 C360.18,65.05 368.64,55.15 380.79,55.15 C387.81,55.15 391.86,58.21 393.39,61.18 L393.39,55.96 L404.91,55.96 L404.91,95.47 C404.91,107.62 398.34,118.69 381.69,118.69 C369.54,118.69 361.44,111.13 360.18,102.67 Z M382.86,88 C388.98,88 393.3,83.59 393.3,76.75 C393.3,69.91 388.62,65.59 382.86,65.59 C376.92,65.59 372.24,69.91 372.24,76.75 C372.24,83.68 376.65,88 382.86,88 Z M425.79,73.06 L445.59,73.06 C445.41,68.65 442.53,64.33 435.69,64.33 C429.48,64.33 426.06,69.01 425.79,73.06 Z M446.76,84.58 L456.75,87.55 C454.5,95.2 447.48,101.59 436.59,101.59 C424.44,101.59 413.73,92.86 413.73,77.92 C413.73,63.79 424.17,54.61 435.51,54.61 C449.19,54.61 457.38,63.34 457.38,77.56 C457.38,79.27 457.2,81.07 457.2,81.25 L425.52,81.25 C425.79,87.1 430.74,91.33 436.68,91.33 C442.26,91.33 445.32,88.54 446.76,84.58 Z M478.8,100.24 L466.83,100.24 L466.83,55.96 L478.26,55.96 L478.26,61.36 C480.69,57.04 486.36,54.7 491.22,54.7 C497.25,54.7 502.11,57.31 504.36,62.08 C507.87,56.68 512.55,54.7 518.4,54.7 C526.59,54.7 534.42,59.65 534.42,71.53 L534.42,100.24 L522.81,100.24 L522.81,73.96 C522.81,69.19 520.47,65.59 514.98,65.59 C509.85,65.59 506.79,69.55 506.79,74.32 L506.79,100.24 L494.91,100.24 L494.91,73.96 C494.91,69.19 492.48,65.59 487.08,65.59 C481.86,65.59 478.8,69.46 478.8,74.32 L478.8,100.24 Z M558.54,100.24 L546.57,100.24 L546.57,55.96 L558.54,55.96 L558.54,100.24 Z M545.13,41.47 C545.13,37.33 548.46,34 552.51,34 C556.65,34 559.89,37.33 559.89,41.47 C559.89,45.43 556.65,48.76 552.51,48.76 C548.46,48.76 545.13,45.43 545.13,41.47 Z M586.08,42.73 L586.08,55.96 L594.99,55.96 L594.99,66.58 L586.08,66.58 L586.08,85.12 C586.08,88.99 587.88,90.25 591.3,90.25 C592.74,90.25 594.36,90.07 594.99,89.89 L594.99,99.79 C593.91,100.24 591.75,100.87 588.24,100.87 C579.6,100.87 574.2,95.74 574.2,87.19 L574.2,66.58 L566.19,66.58 L566.19,55.96 L568.44,55.96 C573.12,55.96 575.28,52.9 575.28,48.94 L575.28,42.73 L586.08,42.73 Z M613.44,73.06 L633.24,73.06 C633.06,68.65 630.18,64.33 623.34,64.33 C617.13,64.33 613.71,69.01 613.44,73.06 Z M634.41,84.58 L644.4,87.55 C642.15,95.2 635.13,101.59 624.24,101.59 C612.09,101.59 601.38,92.86 601.38,77.92 C601.38,63.79 611.82,54.61 623.16,54.61 C636.84,54.61 645.03,63.34 645.03,77.56 C645.03,79.27 644.85,81.07 644.85,81.25 L613.17,81.25 C613.44,87.1 618.39,91.33 624.33,91.33 C629.91,91.33 632.97,88.54 634.41,84.58 Z M677.61,36.43 L700.56,36.43 C712.98,36.43 720,43.72 720,53.62 C720,60.19 716.04,65.5 710.73,67.3 C716.94,68.83 721.98,74.5 721.98,82.42 C721.98,92.77 714.24,100.24 702.27,100.24 L677.61,100.24 L677.61,36.43 Z M689.85,62.8 L698.67,62.8 C704.34,62.8 707.76,59.65 707.76,54.79 C707.76,49.93 704.61,46.87 698.58,46.87 L689.85,46.87 L689.85,62.8 Z M689.85,89.89 L699.93,89.89 C705.96,89.89 709.56,86.74 709.56,81.61 C709.56,76.57 706.32,73.06 700.11,73.06 L689.85,73.06 L689.85,89.89 Z M751.95,90.7 C757.8,90.7 763.2,86.47 763.2,78.1 C763.2,69.73 757.8,65.5 751.95,65.5 C746.1,65.5 740.7,69.73 740.7,78.1 C740.7,86.38 746.1,90.7 751.95,90.7 Z M751.95,54.61 C765.18,54.61 775.17,64.42 775.17,78.1 C775.17,91.69 765.18,101.59 751.95,101.59 C738.72,101.59 728.73,91.69 728.73,78.1 C728.73,64.42 738.72,54.61 751.95,54.61 Z M799.2,42.73 L799.2,55.96 L808.11,55.96 L808.11,66.58 L799.2,66.58 L799.2,85.12 C799.2,88.99 801,90.25 804.42,90.25 C805.86,90.25 807.48,90.07 808.11,89.89 L808.11,99.79 C807.03,100.24 804.87,100.87 801.36,100.87 C792.72,100.87 787.32,95.74 787.32,87.19 L787.32,66.58 L779.31,66.58 L779.31,55.96 L781.56,55.96 C786.24,55.96 788.4,52.9 788.4,48.94 L788.4,42.73 L799.2,42.73 Z M826.56,73.06 L846.36,73.06 C846.18,68.65 843.3,64.33 836.46,64.33 C830.25,64.33 826.83,69.01 826.56,73.06 Z M847.53,84.58 L857.52,87.55 C855.27,95.2 848.25,101.59 837.36,101.59 C825.21,101.59 814.5,92.86 814.5,77.92 C814.5,63.79 824.94,54.61 836.28,54.61 C849.96,54.61 858.15,63.34 858.15,77.56 C858.15,79.27 857.97,81.07 857.97,81.25 L826.29,81.25 C826.56,87.1 831.51,91.33 837.45,91.33 C843.03,91.33 846.09,88.54 847.53,84.58 Z M894.6,55.78 L894.6,67.84 C893.25,67.57 892.08,67.48 891,67.48 C884.88,67.48 879.57,70.45 879.57,79.99 L879.57,100.24 L867.6,100.24 L867.6,55.96 L879.21,55.96 L879.21,62.53 C881.91,56.68 888.03,55.6 891.81,55.6 C892.8,55.6 893.7,55.69 894.6,55.78 Z M915.03,74.23 L915.03,100.24 L903.06,100.24 L903.06,35.08 L915.03,35.08 L915.03,59.65 C917.91,56.23 922.77,54.79 927,54.79 C938.25,54.79 943.47,62.62 943.47,72.34 L943.47,100.24 L931.5,100.24 L931.5,74.41 C931.5,69.46 929.07,65.59 923.31,65.59 C918.27,65.59 915.3,69.37 915.03,74.23 Z M952.92,88.18 C952.92,80.26 958.77,75.85 966.15,74.77 L977.04,73.15 C979.56,72.79 980.37,71.53 980.37,70 C980.37,66.85 977.94,64.24 972.9,64.24 C967.68,64.24 964.8,67.57 964.44,71.44 L953.82,69.19 C954.54,62.26 960.93,54.61 972.81,54.61 C986.85,54.61 992.07,62.53 992.07,71.44 L992.07,93.22 C992.07,95.56 992.34,98.71 992.61,100.24 L981.63,100.24 C981.36,99.07 981.18,96.64 981.18,94.93 C978.93,98.44 974.7,101.5 968.13,101.5 C958.68,101.5 952.92,95.11 952.92,88.18 Z M970.65,92.59 C975.69,92.59 980.37,90.16 980.37,82.33 L980.37,80.35 L970.38,81.88 C967.32,82.33 964.89,84.04 964.89,87.46 C964.89,90.07 966.78,92.59 970.65,92.59 Z M1016.1,100.24 L1004.13,100.24 L1004.13,55.96 L1015.56,55.96 L1015.56,61.36 C1017.99,57.04 1023.66,54.7 1028.52,54.7 C1034.55,54.7 1039.41,57.31 1041.66,62.08 C1045.17,56.68 1049.85,54.7 1055.7,54.7 C1063.89,54.7 1071.72,59.65 1071.72,71.53 L1071.72,100.24 L1060.11,100.24 L1060.11,73.96 C1060.11,69.19 1057.77,65.59 1052.28,65.59 C1047.15,65.59 1044.09,69.55 1044.09,74.32 L1044.09,100.24 L1032.21,100.24 L1032.21,73.96 C1032.21,69.19 1029.78,65.59 1024.38,65.59 C1019.16,65.59 1016.1,69.46 1016.1,74.32 L1016.1,100.24 Z" id="Vegemite-Boterham" fill="#444444"></path>
        </g>
    </g>
</svg>